<svg xmlns:dc="http://purl.org/dc/elements/1.1/" xmlns:cc="http://creativecommons.org/ns#" xmlns:rdf="http://www.w3.org/1999/02/22-rdf-syntax-ns#" xmlns:svg="http://www.w3.org/2000/svg" xmlns="http://www.w3.org/2000/svg" viewBox="0 0 210 210" fill="none"><metadata><rdf:RDF><cc:Work><dc:format>image/svg+xml</dc:format><dc:type rdf:resource="http://purl.org/dc/dcmitype/StillImage"/><dc:title>Face Generator</dc:title><dc:creator><cc:Agent><dc:title>The Visual Team</dc:title></cc:Agent></dc:creator><dc:source>https://www.figma.com/community/file/986078800058673824</dc:source><cc:license rdf:resource="https://creativecommons.org/licenses/by/4.0/"/></cc:Work><cc:License rdf:about="https://creativecommons.org/licenses/by/4.0/"><cc:permits rdf:resource="https://creativecommons.org/ns#Reproduction"/><cc:permits rdf:resource="https://creativecommons.org/ns#Distribution"/><cc:permits rdf:resource="https://creativecommons.org/ns#DerivativeWorks"/><cc:requires rdf:resource="https://creativecommons.org/ns#Notice"/><cc:requires rdf:resource="https://creativecommons.org/ns#Attribution"/></cc:License></rdf:RDF></metadata><mask id="avatarsRadiusMask"><rect width="210" height="210" rx="0" ry="0" x="0" y="0" fill="#fff"/></mask><g mask="url(#avatarsRadiusMask)"><rect fill="rgba(218, 153, 105, 1)" width="210" height="210" x="0" y="0"/><g transform="translate(86.79 138.86) scale(.71856)"><path d="M-23.93 25.418c0-9.373 7.598-16.97 16.97-16.97h65.62c9.372 0 16.97 7.597 16.97 16.97 0 9.373-7.598 16.97-16.97 16.97H-6.96c-9.372 0-16.97-7.597-16.97-16.97Z" fill="#DE8383"/><path fill-rule="evenodd" clip-rule="evenodd" d="M71.751 34.945c-2.51 4.234-7.127 7.072-12.406 7.072h-67.71c-5.28 0-9.896-2.838-12.406-7.072 2.51-4.233 7.127-7.072 12.406-7.072h67.71c5.28 0 9.895 2.839 12.406 7.072Z" fill="#C06E6E"/><path fill-rule="evenodd" clip-rule="evenodd" d="M75.616 23.726h-99.533c.36-9.054 7.814-16.283 16.957-16.283h65.62c9.142 0 16.596 7.23 16.956 16.283Z" fill="#F9F9F9"/></g><g transform="translate(2 11) scale(.71856)"><path d="M78.206 51.352C81.323 48.902 86.118 44 95.47 44c7.944 0 14.625 5.392 15.823 7.352M179.165 51.352c3.117-2.45 7.912-7.352 17.262-7.352 7.945 0 14.626 5.392 15.824 7.352" stroke="#000" stroke-width="3.676" stroke-linecap="round"/><rect x="72" y="64.733" width="43.313" height="52.938" rx="14.438" fill="#fff"/><rect x="173" y="64.733" width="43.313" height="52.938" rx="14.438" fill="#fff"/><path d="M184 76.678c0-6.697 5.481-12.097 12.176-11.999l10 .147c6.558.097 11.824 5.44 11.824 11.999V106c0 6.627-5.373 12-12 12h-10c-6.627 0-12-5.373-12-12V76.678ZM83 76.678c0-6.697 5.48-12.097 12.177-11.999l9.999.147c6.558.097 11.824 5.44 11.824 11.999V106c0 6.627-5.373 12-12 12H95c-6.627 0-12-5.373-12-12V76.678Z" fill="#757575"/><rect x="90.619" y="76.238" width="18.619" height="28.963" rx="9.309" fill="#000"/><rect x="191.619" y="76.238" width="18.619" height="28.963" rx="9.309" fill="#000"/></g><g transform="translate(14.934 89.19) scale(.71856)"/><g transform="translate(80.323 79.849) scale(.71856)"><g fill="#000" fill-opacity=".19"><rect x="25.885" y="51.461" width="11.691" height="8.885" rx="4.443" transform="rotate(-90 25.885 51.461)"/><rect x="43.656" y="51.461" width="11.691" height="8.885" rx="4.443" transform="rotate(-90 43.656 51.461)"/><path d="M61.242 41.382c.121-.816.184-1.65.184-2.5C61.426 29.558 53.867 22 44.544 22H33.882C24.558 22 17 29.558 17 38.882c0 .85.063 1.684.184 2.5C18.392 33.244 25.408 27 33.882 27h10.662c8.474 0 15.49 6.244 16.698 14.382Z"/></g></g></g></svg>